<?xml version="1.0" encoding="utf-8"?>
<!-- Generator: Adobe Illustrator 27.0.0, SVG Export Plug-In . SVG Version: 6.00 Build 0)  -->
<svg version="1.1" id="Layer_1" xmlns="http://www.w3.org/2000/svg" xmlns:xlink="http://www.w3.org/1999/xlink" x="0px" y="0px"
	 viewBox="0 0 124 124" style="enable-background:new 0 0 124 124;" xml:space="preserve">
<style type="text/css">
	.st0{opacity:0.725;fill:#71A2FF;enable-background:new    ;}
	.st1{fill:#FFFFFF;}
</style>
<g id="Group_9459" transform="translate(-497.155 -222.155)">
	<g id="Group_8086" transform="translate(-122.845 -6.845)">
		<path id="Path_2336" class="st0" d="M682,229c34.2,0,62,27.8,62,62s-27.8,62-62,62s-62-27.8-62-62S647.8,229,682,229
			C682,229,682,229,682,229z"/>
		<path id="play" class="st1" d="M692.3,285.4l-13.1-9.6c-3.1-2.2-7.4-1.6-9.6,1.5c-0.9,1.2-1.3,2.6-1.3,4.1v19.3
			c0,3.8,3.1,6.9,6.9,6.9c1.5,0,2.9-0.5,4.1-1.3l13.1-9.6c3.1-2.2,3.7-6.6,1.5-9.6C693.4,286.4,692.9,285.9,692.3,285.4L692.3,285.4
			z"/>
	</g>
</g>
</svg>
