<svg xmlns="http://www.w3.org/2000/svg" width="668" height="582" viewBox="0 0 668 582" version="1.1"><path d="M 211.959 153.184 C 207.652 153.575, 200.888 155.157, 196.186 156.873 C 160.231 169.995, 141.815 208.913, 154.416 245.146 C 157.885 255.121, 162.451 262.329, 170.500 270.539 C 191.873 292.338, 223.655 297.640, 251.007 283.969 C 264.544 277.203, 274.876 266.791, 281.951 252.787 C 287.509 241.784, 289.347 232.503, 288.800 218.206 L 288.356 206.607 294.428 200.553 C 305.089 189.925, 317.568 185.030, 334 185.030 C 350.473 185.030, 362.763 189.874, 373.480 200.591 L 379.600 206.712 379.186 219.161 C 378.837 229.630, 379.109 232.841, 380.896 239.354 C 388.650 267.618, 411.285 287.306, 440.236 290.969 C 462.959 293.843, 486.651 284.281, 501.547 266.221 C 530.416 231.223, 518.700 178.793, 477.690 159.454 C 467.292 154.550, 460.160 153, 448 153 C 435.868 153, 428.667 154.559, 418.500 159.388 C 405.165 165.720, 394.924 175.177, 387.791 187.747 L 384.813 192.993 379.259 188.043 C 367.271 177.359, 352.154 172, 334 172 C 315.846 172, 300.729 177.359, 288.741 188.043 L 283.187 192.993 280.219 187.747 C 271.749 172.773, 256.447 160.514, 240 155.524 C 232.674 153.301, 221.211 152.345, 211.959 153.184 M 272.421 385.427 C 265.639 388.362, 265.810 394.687, 273.005 407 C 285.159 427.798, 306.511 439, 334 439 C 347.783 439, 356.886 437.065, 368 431.771 C 374.848 428.509, 378.068 426.146, 384.566 419.611 C 392.617 411.515, 396.237 406.184, 399.520 397.588 C 401.751 391.745, 400.291 387.437, 395.384 385.387 C 389.705 383.014, 386.355 385.370, 381.794 394.941 C 377.871 403.175, 368.689 412.475, 360.674 416.332 C 344.013 424.351, 318.982 423.642, 304.161 414.732 C 297.023 410.440, 289.338 401.919, 285.799 394.371 C 281.534 385.276, 278.090 382.974, 272.421 385.427" stroke="none" fill="#faf9f9" fill-rule="evenodd"/><path d="M 141.500 16.537 C 95.730 24.975, 67.365 47.652, 54.610 86 C 47.989 105.908, 47.542 110.460, 47.494 158.500 C 47.457 194.784, 47.179 203.035, 45.711 211.328 C 41.913 232.784, 36.111 244.539, 24.420 254.457 C 16.047 261.560, 12.523 265.830, 9.114 273 C 6.696 278.088, 6.500 279.512, 6.500 292 C 6.500 304.908, 6.629 305.762, 9.434 311.476 C 12.208 317.125, 17.422 323.003, 28.199 332.630 C 36.336 339.899, 42.072 352.664, 45.665 371.500 C 47.113 379.091, 47.401 387.467, 47.502 425 C 47.633 473.111, 47.862 475.722, 53.651 494.969 C 63.791 528.685, 88.451 552.593, 123.678 562.861 C 143.344 568.593, 158.710 569.849, 165.500 566.278 C 178.042 559.684, 183.391 544.809, 177.647 532.500 C 174.170 525.048, 168.754 520.718, 158.936 517.540 C 154.364 516.059, 148.796 513.921, 146.562 512.787 C 126.552 502.634, 113.430 483.573, 108.411 457.372 C 106.392 446.836, 106.079 425.569, 107.389 388 C 108.034 369.504, 107.954 360.088, 107.098 353.719 C 103.998 330.662, 94.032 309.372, 80.191 296.240 L 75.702 291.981 81.658 285.740 C 95.009 271.753, 103.054 254.946, 106.465 233.916 C 108.320 222.478, 108.406 209.332, 106.840 176.341 C 105.514 148.416, 106.369 133.221, 110.084 118.670 C 116.367 94.065, 132.181 75.490, 153.170 68.064 C 156.652 66.832, 161.460 65.134, 163.855 64.289 C 172.843 61.121, 178.819 53.131, 179.722 43.072 C 180.662 32.605, 176.139 23.510, 167.467 18.428 C 161.713 15.056, 152.982 14.420, 141.500 16.537 M 502.500 17.383 C 499.750 18.683, 496.289 21.041, 494.809 22.624 C 483.563 34.644, 486.807 55.774, 501 62.954 C 502.925 63.928, 507.650 65.737, 511.500 66.976 C 532.194 73.631, 547.549 88.983, 555.398 110.865 C 560.533 125.179, 561.484 133.856, 561.004 162 C 560.051 217.796, 560.363 231.664, 562.787 241.330 C 567.380 259.649, 574.389 273.163, 585.218 284.582 L 591.937 291.666 586.641 297.133 C 573.653 310.543, 565.074 328.163, 561.469 348.836 C 559.702 358.971, 559.584 379.180, 561.118 409.117 C 562.907 444.035, 560.294 463.509, 551.345 481.951 C 547.490 489.898, 545.386 492.766, 538.130 499.969 C 528.853 509.178, 522.281 513.227, 510.500 516.991 C 498.131 520.942, 492.307 525.647, 489.056 534.315 C 487.732 537.846, 487.691 546.435, 488.977 550.920 C 491.326 559.109, 499.126 566.117, 508.149 568.145 C 516.077 569.926, 540.246 565.138, 556.586 558.550 C 573.489 551.734, 589.780 539.174, 599.640 525.356 C 608.581 512.827, 615.624 494.484, 619.167 474.500 C 620.018 469.699, 620.436 453.836, 620.496 424 C 620.571 387.157, 620.850 379.123, 622.315 371.500 C 625.950 352.585, 631.316 340.531, 639.428 333.053 C 651.640 321.797, 655.822 317.082, 658.575 311.467 C 661.370 305.765, 661.500 304.899, 661.500 291.979 C 661.500 278.759, 661.428 278.314, 658.281 271.979 C 654.766 264.906, 652.011 261.716, 641.219 252.224 C 632.713 244.742, 628.286 236.695, 624.592 222 C 620.722 206.606, 619.898 193.718, 620.212 153.500 C 620.536 111.880, 619.922 105.820, 613.369 86 C 600.642 47.504, 571.567 24.393, 526.074 16.612 C 513.209 14.412, 508.456 14.567, 502.500 17.383 M 445.250 152.716 C 446.762 152.945, 449.238 152.945, 450.750 152.716 C 452.262 152.487, 451.025 152.300, 448 152.300 C 444.975 152.300, 443.738 152.487, 445.250 152.716 M 331.250 171.716 C 332.762 171.945, 335.238 171.945, 336.750 171.716 C 338.262 171.487, 337.025 171.300, 334 171.300 C 330.975 171.300, 329.738 171.487, 331.250 171.716 M 293.946 200.750 L 290.500 204.500 294.250 201.054 C 296.313 199.158, 298 197.471, 298 197.304 C 298 196.540, 297.154 197.260, 293.946 200.750 M 378.272 222 C 378.272 224.475, 378.467 225.488, 378.706 224.250 C 378.944 223.012, 378.944 220.988, 378.706 219.750 C 378.467 218.512, 378.272 219.525, 378.272 222 M 384.453 420.250 L 380.500 424.500 384.750 420.547 C 388.702 416.871, 389.460 416, 388.703 416 C 388.540 416, 386.627 417.913, 384.453 420.250 M 331.250 439.716 C 332.762 439.945, 335.238 439.945, 336.750 439.716 C 338.262 439.487, 337.025 439.300, 334 439.300 C 330.975 439.300, 329.738 439.487, 331.250 439.716" stroke="none" fill="#04ebfb" fill-rule="evenodd"/></svg>