<?xml version="1.0" standalone="no"?>
<!DOCTYPE svg PUBLIC "-//W3C//DTD SVG 20010904//EN"
 "http://www.w3.org/TR/2001/REC-SVG-20010904/DTD/svg10.dtd">
<svg version="1.0" xmlns="http://www.w3.org/2000/svg"
 width="32.000000pt" height="32.000000pt" viewBox="0 0 32.000000 32.000000"
 preserveAspectRatio="xMidYMid meet">

<g transform="translate(0.000000,32.000000) scale(0.100000,-0.100000)"
fill="#000000" stroke="none">
<path d="M56 277 c-9 -7 -19 -30 -21 -51 -3 -22 -10 -45 -16 -53 -8 -9 -8 -17
0 -27 6 -8 13 -31 15 -51 1 -23 10 -43 21 -51 24 -18 33 -9 13 13 -29 32 -27
174 2 203 22 22 12 36 -14 17z"/>
<path d="M240 285 c0 -5 7 -16 16 -26 23 -26 22 -173 -2 -200 -23 -25 -10 -37
16 -14 13 12 20 31 20 55 0 20 5 41 12 48 8 8 8 15 0 24 -6 7 -12 31 -14 52
-2 27 -10 43 -25 54 -13 8 -23 11 -23 7z"/>
<path d="M84 205 c-8 -21 2 -45 19 -45 20 0 40 27 33 45 -7 19 -45 20 -52 0z"/>
<path d="M184 205 c-4 -9 0 -23 9 -32 21 -21 49 -9 45 19 -4 28 -45 38 -54 13z"/>
<path d="M165 100 c-16 -7 -17 -9 -3 -9 9 -1 20 4 23 9 7 11 7 11 -20 0z"/>
</g>
</svg>
