<?xml version="1.0" encoding="utf-8"?>
<!-- Generator: Adobe Illustrator 26.5.0, SVG Export Plug-In . SVG Version: 6.00 Build 0)  -->
<svg version="1.1" id="Layer_1" xmlns="http://www.w3.org/2000/svg" xmlns:xlink="http://www.w3.org/1999/xlink" x="0px" y="0px"
	 viewBox="0 0 383.3 384" style="enable-background:new 0 0 383.3 384;" xml:space="preserve">
<style type="text/css">
	.st0{fill:#6FA998;}
</style>
<g>
	<path class="st0" d="M151.2,384c0-18,0-36,0-54.7c-8.6,6.5-17.6,8.6-27.5,5.6c-6-1.8-10.9-5.5-14.5-10.7
		c-7.4-10.5-6.8-24.7,1.5-34.4c9.9-11.5,21.6-12.7,40.4-3.6c0-17.8,0-35.5,0-53.4c18,0,35.6,0,53.3,0c-9,18.9-7.6,31.4,4.7,41
		c10.4,8.2,25.2,7.9,35.2-0.6c11.6-9.9,12.9-23,3.7-40.3c18,0,35.8,0,54.1,0c0,1.6,0,3.1,0,4.6c0,41.1,0,82.2,0,123.4
		c0,13.6-3.2,18.4-15.5,23.2C241.5,384,196.4,384,151.2,384z"/>
	<path class="st0" d="M383.3,151.5c-17.9,0-35.9,0-54.5,0c6.4,8.3,8.4,17.3,5.6,27c-1.8,6.2-5.5,11.2-10.8,14.9
		c-11,7.7-25.8,6.5-35.5-2.7c-10.7-10.2-11.6-23.7-2.3-39.1c-17.8,0-35.4,0-53.3,0c0-18.1,0-35.9,0-53.7c18,9.2,31,7.8,40.6-4.3
		c8.4-10.5,8.2-25.5-0.6-35.9c-9.8-11.6-23.2-12.8-40.3-3.3c0-18.4,0-36.4,0-54.4c45.4,0,90.8,0,136.2,0c7.6,2.4,12.5,7.5,15,15
		C383.3,60.5,383.3,106,383.3,151.5z"/>
	<path class="st0" d="M15,384c-7.3-2.7-12.9-6.9-14.5-15c-0.3-1.3-0.4-2.7-0.4-4.1c0-43.1,0-86.2,0-129.3c0-0.8,0.1-1.7,0.2-3
		c18,0,35.9,0,53.9,0c-9.3-17.9-7.8-31.3,4.2-41c10.3-8.2,25.2-8.1,35.3,0.2c11.9,9.8,13.3,23.3,3.9,40.7c10.3,0,20.5,0,30.8,0
		c0,8.3,0,16.3,0,24.6c-16.4,2-29.8,9.6-38.9,23.8c-6.1,9.6-8.7,20.1-7.7,31.4c2,22.6,18.9,43.1,47,46.4c0,8.3,0,16.8,0,25.2
		C90.8,384,52.9,384,15,384z"/>
	<path class="st0" d="M151.1,81.4c0,18.2,0,36,0,54.5c8.2-6.2,16.8-8.5,26.4-5.9c6.3,1.8,11.5,5.4,15.3,10.7
		c7.7,10.7,6.9,25.2-1.7,35c-10,11.4-23.1,12.5-39.9,3.2c0,5.3,0,10.4,0,15.4c0,5.1,0,10.2,0,15.5c-8.3,0-16.3,0-24.6,0
		c-1.9-16.3-9.3-29.5-23.2-38.6c-9-6-19-8.6-29.8-8.2c-20.3,0.8-44.3,15.3-48.6,46.8c-8.2,0-16.3,0-24.8,0c-0.1-1.3-0.2-2.5-0.2-3.7
		c0-34.9,0-69.7,0-104.6c0-12.4,7.7-20.4,19.9-20.4c42.8-0.1,85.6,0,128.4,0C149.1,81.2,149.8,81.3,151.1,81.4z"/>
</g>
</svg>
