<?xml version="1.0" encoding="utf-8"?>
<!-- Generator: Adobe Illustrator 26.5.0, SVG Export Plug-In . SVG Version: 6.00 Build 0)  -->
<svg version="1.1" id="Layer_1" xmlns="http://www.w3.org/2000/svg" xmlns:xlink="http://www.w3.org/1999/xlink" x="0px" y="0px"
	 viewBox="0 0 349.5 366.5" style="enable-background:new 0 0 349.5 366.5;" xml:space="preserve">
<style type="text/css">
	.st0{fill:#71a2ff;}
</style>
<g>
	<path class="st0" d="M228.2,304.2c0,8.1,0,15.5,0,23.5c3.4,0,6.6,0,9.8,0c11.3,0.1,18.7,7.5,19,18.8c0.1,4,0.1,8,0,12
		c-0.2,5.3-3,8-8.3,8c-49.2,0-98.3,0-147.5,0c-5.6,0-8.3-2.7-8.5-8.2c-0.1-4.1-0.1-8.3,0-12.4c0.4-10.7,7.7-17.9,18.4-18.2
		c3.3-0.1,6.7,0,10.3,0c0-7.9,0-15.5,0-23.5c-1.6,0-3,0-4.5,0c-25.7,0-51.4,0.1-77.1,0c-19.6-0.1-36.2-14.3-39-33.7
		c-1.1-7.5-0.6-15.2-0.6-22.8c0-18.4,0.1-36.8,0.1-55.1c0-30.8-0.1-61.5,0-92.3c0.1-19.6,12.9-35.9,31.8-39.4c8-1.5,16.4-1.1,24.6-1
		c5.6,0.1,10.5-0.9,15.4-4.1c4.4-2.9,9.8-4,14.7-6.1c1.3-0.6,2.8-1.7,3.3-2.9c11.5-33.2,47.5-46.3,77.2-28c0.4,0.3,0.9,0.5,1.4,0.8
		c15.1-17.7,33.8-24.3,55.9-15.8c19.6,7.6,29.1,23.3,30.4,44.3c3.5,0.6,7.2,0.6,10.5,1.8c6.4,2.4,12.5,5.5,18.7,8.2
		c1.8,0.8,3.6,1.6,5.5,1.7c8.3,0.3,16.8-0.2,25,0.7c19,2,34.3,18.7,34.4,37.9c0.3,47.3,0.1,94.5,0.1,141.8c0,8.7,0.3,17.5,0,26.2
		c-0.8,20.9-18,37.7-39,37.9c-25.8,0.2-51.7,0.1-77.5,0.1C231.4,304.2,229.9,304.2,228.2,304.2z M11.5,244.5
		c109.1,0,217.7,0,326.4,0c0.1-0.9,0.2-1.5,0.2-2.1c0-47.6,0.2-95.3-0.1-142.9c-0.1-19.7-17.1-32.1-40.1-27.8c0.4,0.7,0.7,1.3,1.1,2
		c21.2,35.8-3.4,80.2-44.9,80.4c-52,0.3-104.1,0.3-156.1,0c-35.2-0.2-59.8-34.2-49.7-68c1.5-5.1,4-9.8,6.4-15.5
		c-7.2,0.4-14.4,0.1-21.2,1.5c-13.3,2.8-21.8,14.4-21.9,28.5c0,46.8,0,93.5,0,140.3C11.5,242,11.5,243.1,11.5,244.5z M183.8,73.3
		c0.7-4.3-0.2-7.5-5.4-8.3c-2-0.3-4.2-7.8-3.1-9.6c1.8-2.8,1.4-5.1-1-7.3c-1.2-1.1-2.3-2.3-3.5-3.4c-1.8-1.9-3.8-2-6.1-0.7
		c-3.5,2-9.3-0.8-10.9-4.5c-0.7-1.6-2.7-3-4.4-3.6c-1.8-0.6-3.9-0.2-5.9-0.1c-2.6,0.1-4.1,1.3-4.7,3.9c-1,3.7-7.4,6.3-10.6,4.5
		c-2.3-1.3-4.2-1.3-6.1,0.6c-1.4,1.4-2.8,2.8-4.2,4.3c-1.8,1.9-1.9,3.9-0.5,6.1c1.9,3.2-0.7,9.5-4.4,10.6c-2.5,0.7-3.8,2.3-3.8,4.8
		c0,1.9,0,3.8,0,5.6c0,2.8,1.4,4.4,4,5.1c3.6,1,6.1,7.3,4.2,10.6c-1.2,2.1-1.1,4,0.6,5.8c1.4,1.4,2.8,2.8,4.2,4.3
		c1.8,1.9,3.8,2.1,6.1,0.8c3.6-2,9.4,0.7,10.9,4.5c0.6,1.4,2.1,3.1,3.4,3.3c2.6,0.5,5.5,0.5,8.2,0c1.3-0.2,3.1-1.8,3.3-2.9
		c0.5-3.1,2.5-3.8,4.9-4.8c2.3-1,4.2-2,6.8-0.1c1,0.7,3.5,0,5-0.7c1.3-0.6,2.1-2.1,3.3-3c2.7-2.3,3.7-4.8,1.4-8.1
		c-1.2-1.7,1.5-9.2,3.4-9.5C183.6,80.5,184.4,77.4,183.8,73.3z M194.3,86.1c-2.9-0.5-4.1,1.3-4.9,3.5c-0.9,2.6-3.1,5.1,0.1,7.7
		c2.3,1.9,2.4,7.1,0.2,8.7c-2.5,1.9-2,3.9-1,6.3c1.1,2.6,1.6,5.6,5.7,5.1c2.8-0.3,6.3,3.5,6,6.4c-0.4,3.2,1.8,4.1,4,5
		c2.4,0.9,4.7,2.6,7.1-0.2c2.2-2.5,7-2.5,9.2,0c2.3,2.6,4.5,1,6.8,0.2c2.3-0.9,4.4-1.6,4.2-4.8c-0.2-3.5,3-6.7,6.6-6.6
		c3.5,0.2,4-2.4,5-4.7c1-2.2,2-4.3-0.4-6.5c-2.6-2.4-2.6-6.9,0-9.3c2.7-2.5,0.9-4.8,0-7.1c-0.8-2.2-1.7-4.1-4.6-4
		c-3.4,0.2-6.8-3-6.6-6.5c0.2-4.2-3.2-4.2-5.6-5.4c-2.1-1.1-3.9-1-5.6,1c-2,2.4-6.9,2.5-9,0c-2.5-3.1-4.9-1.1-7.4-0.2
		c-2.3,0.9-4.3,2-3.8,5.1C200.9,82.7,197.1,86.2,194.3,86.1z M174.6,284.7c5.8,0.1,10.6-4.6,10.5-10.3c0-5.6-4.6-10.2-10.2-10.2
		c-5.8-0.1-10.6,4.6-10.5,10.3C164.4,280.1,169,284.7,174.6,284.7z"/>
	<path class="st0" d="M174.8,227.7c-25.6,0-51.2,0.2-76.7-0.1c-19.9-0.2-32.3-21.3-22.8-38.6c5.1-9.2,13.2-13.8,23.7-13.8
		c33.2-0.1,66.4,0,99.6,0c17.8,0,35.7-0.1,53.5,0c12.8,0.1,23.6,9.7,25.4,22.2c1.8,13-5.5,25.1-17.8,28.9c-3.2,1-6.6,1.3-9.9,1.3
		C224.7,227.7,199.7,227.7,174.8,227.7C174.8,227.7,174.8,227.7,174.8,227.7z M204,216.3c16.6,0,32.9,0.2,49.3-0.1
		c6.4-0.1,11.7-5.5,12.9-11.7c1.8-9.6-5-17.9-15-18c-14.8-0.1-29.7,0-44.5,0c-0.8,0-1.7,0.2-2.6,0.3C204,196.6,204,206.2,204,216.3z
		"/>
	<path class="st0" d="M131.2,73.4c-0.1-8.7,6.5-15.5,15.2-15.5c8.4,0,15.3,6.7,15.5,15c0.2,8.6-7,15.9-15.5,15.8
		C138.1,88.7,131.3,81.8,131.2,73.4z"/>
	<path class="st0" d="M216.2,90.4c6.2,0,11.4,5.2,11.3,11.5c0,6.2-4.9,11.1-11.1,11.2c-6.3,0.1-11.5-5-11.6-11.2
		C204.8,95.7,210,90.4,216.2,90.4z"/>
</g>
</svg>
